PathFileType	4	(X/Y/Z)	Patient4_TMGait_0pt4_01_right_20.trc.trc
DataRate	CameraRate	NumFrames	NumMarkers	Units	OrigDataRate	OrigDataStartFrame	OrigNumFrames
76.923076923077	76.923076923077	4	33	mm	76.923076923077	71	       141
Frame#	Time	Sacral			L.Shoulder			Chest			R.Shoulder			Neck			R.ASIS			L.ASIS			R.Thigh.Superior			R.Thigh.Lateral			R.Thigh.Inferior			R.Patella			L.Thigh.Superior			L.Thigh.Lateral			L.Thigh.Inferior			L.Patella			L.Shank.Superior			L.Shank.Lateral			L.Shank.Inferior			R.Shank.Superior			R.Shank.Lateral			R.Shank.Inferior			R.Heel			R.Midfoot.Superior			R.Midfoot.Lateral			R.Toe			L.Heel			L.Midfoot.Lateral			L.Midfoot.Superior			L.Toe			L.Elbow			L.Wrist			R.Elbow			R.Wrist			
		X1	Y1	Z1	X2	Y2	Z2	X3	Y3	Z3	X4	Y4	Z4	X5	Y5	Z5	X6	Y6	Z6	X7	Y7	Z7	X8	Y8	Z8	X9	Y9	Z9	X10	Y10	Z10	X11	Y11	Z11	X12	Y12	Z12	X13	Y13	Z13	X14	Y14	Z14	X15	Y15	Z15	X16	Y16	Z16	X17	Y17	Z17	X18	Y18	Z18	X19	Y19	Z19	X20	Y20	Z20	X21	Y21	Z21	X22	Y22	Z22	X23	Y23	Z23	X24	Y24	Z24	X25	Y25	Z25	X26	Y26	Z26	X27	Y27	Z27	X28	Y28	Z28	X29	Y29	Z29	X30	Y30	Z30	X31	Y31	Z31	X32	Y32	Z32	X33	Y33	Z33	

71	26.660000000000	668.797450013059	1008.349716563625	511.238518879111	830.373973706553	1445.478237840464	336.165217821096	954.695678631141	1367.376511924764	476.482362442826	897.136567639057	1434.349650602526	662.442858092812	837.588734590495	1495.551180148932	504.682540278187	905.570022071674	943.138978534212	607.542030820081	868.614156508757	968.181573899668	335.502378593527	911.917933775009	732.335692733404	578.481085730768	815.737118394312	633.734264388945	643.196666300268	879.840570867174	572.106170031840	562.476857631466	867.152440296235	489.627583043120	568.289799150366	945.601977508667	779.160838343301	354.868328562268	888.945244139419	650.483278124425	280.432181515041	996.114423221116	591.205086622293	330.820996956835	1015.315500074681	520.635145634774	329.071712305881	992.631739637501	445.895625868888	319.406661472833	910.318288764982	325.798969393620	268.039398513246	985.032844194829	216.049691404863	320.546985378966	836.044198060640	402.535142948082	574.303505726959	761.216493603205	300.792574633647	636.101414458266	800.491437274644	205.592345543313	570.154798134131	662.880211226564	41.676549648217	536.179118069657	834.988122687080	97.354510806291	573.089804760757	746.332363550301	36.190894762488	610.658477192449	954.486346482555	44.559899502625	599.132030641516	882.574646668547	44.434466670509	356.511846678952	954.698256270784	46.926321066672	274.852369092803	1031.612184166429	118.606939803586	297.036297651614	1162.203711670869	80.562846154905	265.808166041339	825.962351964235	1222.574127340754	72.831357426715	970.216204794500	1068.971468637019	-84.912759297852	1032.974364622755	1116.730946253091	765.181170996234	1277.023598248561	1050.521853255154	709.574921763617	
72	26.673000000000	669.472772858981	1007.285123789962	508.427652319172	829.179027018953	1444.793525844994	333.087116537428	953.371420105661	1367.377861382423	473.880587211212	895.015479448117	1434.268916530349	659.638595429408	835.837556524601	1495.063738805343	501.437480070728	906.221790196922	942.832419804071	605.608873744227	869.937503934164	967.057747994222	333.471049385624	912.272618125522	731.623220381392	576.942014745689	815.455658255262	633.339602176254	641.536490480467	879.194257411210	571.283036016361	560.984251016501	865.890290286853	488.565759810938	566.707780426414	945.598743653910	775.869405329396	353.435167710268	886.144399434750	647.800404941722	280.377766041542	992.666050032292	587.342502977843	330.759874176248	1010.501143088566	516.487793514791	329.506191216776	987.149648312430	442.014158151519	319.915715335845	903.416219108822	322.411381850113	269.660410047520	977.338876357564	212.225190499275	322.355182941710	834.054173467899	401.674538976579	573.041843876130	758.398269710389	300.791576957146	635.289433074027	796.480820128266	205.061538634514	569.501289454299	657.661116480529	41.658970721230	536.209671757218	829.726069459841	97.189223504012	572.861541996823	741.092136986217	36.156173600986	610.655754760852	949.259120875059	44.379294450022	599.124990985665	872.943138529597	42.691169659852	359.450852720652	944.634807579787	43.914772614612	277.311517577659	1022.964657176369	113.948683052988	299.217783757812	1152.845735191343	73.443697832415	267.291033177739	824.578437306753	1221.111390204843	70.276984407616	969.201579931910	1067.557294115399	-87.156515153019	1030.768038546457	1116.781913336250	763.405292358186	1274.962746104109	1051.916421470301	707.628057690454	
73	26.686000000000	670.307447220522	1006.204174742253	505.485916736353	828.173444630415	1444.098303384767	329.789786972402	952.150086429346	1367.441718511633	471.174964681363	892.832608405278	1434.279765215599	656.673492184029	834.162950603744	1494.620785325648	497.937394783972	907.057769441228	942.504116182303	603.550559645762	871.427978685363	965.973110676460	331.377006937720	913.034641099612	730.917889740000	575.273248069361	815.579987472863	632.913795555041	639.714505723021	878.946578640701	570.433867658826	559.333093392448	864.986330218432	487.446489508569	564.947326140486	945.280769150169	772.213297966996	351.918063164236	883.012825531061	645.121788042134	280.008642505183	988.684850000359	583.381849101194	330.848697820872	1005.303575718214	512.426749070754	329.927656390369	981.433367302026	438.303887192494	320.258128855934	896.616051415145	319.044164590684	271.025164465372	969.945649056228	208.585865859572	323.888867431759	832.369084008705	400.795078208834	571.636428735324	755.817594208399	300.850478310162	634.368569434013	792.613741971954	204.548493373159	568.785827895934	652.477178682806	41.718371823132	536.248453273568	824.519372469837	97.028787686294	572.612522591408	735.888076733183	36.150850183449	610.637653314132	944.066010093787	44.105583419879	599.127638398597	863.933602159873	41.045624571127	362.010367580548	935.184862575531	41.182687397573	279.390649273895	1014.837657235428	109.562453635147	301.141316943851	1144.048365707431	66.743118479945	268.522135225676	823.213924028636	1219.446066411648	67.652505193394	968.242223963120	1065.891270024427	-89.397864182448	1027.923540779820	1116.604508808584	761.637623067164	1272.176667816358	1052.401402386741	706.074199283073	
74	26.699000000000	671.236341592653	1005.189187100173	502.465432423785	827.362583313167	1443.446978183598	326.313231098370	951.062229234153	1367.590715886706	468.364826501938	890.690634379587	1434.425334935649	653.559509978054	832.620997589237	1494.274051177528	494.215301898310	908.020990916237	942.181390476555	601.319145948735	872.953911683364	965.029550704664	329.176632118392	914.115590088303	730.261012773581	573.411524474506	816.063740392379	632.493073866973	637.714298431547	879.055577058280	569.596527334417	557.504117824333	864.429148515888	486.297896351548	563.012079901080	944.672297951071	768.505450864708	350.261980741375	879.777365744324	642.657320791412	279.265407186150	984.461631895779	579.646604897653	330.966423535308	1000.021837271141	508.721153768099	330.235044435304	975.796220324175	434.978032264640	320.367905991318	890.238025295076	315.926713765193	272.002824796438	963.089621193842	205.335333866232	325.069521535555	830.960119815140	399.932144502816	570.094462605744	753.445350552927	301.010626802884	633.338703716664	788.884729786968	204.092833972397	568.023582706715	647.332737913315	41.896868846423	536.297114057352	819.380498454772	96.889059141840	572.355320051845	730.726949142343	36.192914681308	610.603455484763	938.912078587986	43.732148274383	599.142166898423	855.743374035957	39.631759451583	364.100107256158	926.577737998318	38.882474073334	281.029936420874	1007.416803522342	105.677937997205	302.739016308723	1136.024275402122	60.760458791102	269.483457600276	821.832071929754	1217.577597106855	65.030691820801	967.313033514069	1063.936051391844	-91.521809808300	1024.418662959685	1116.209187139325	759.871312205024	1268.633245021867	1051.935602587122	704.896567728845	
